<svg id="Layer_1" data-name="Layer 1" xmlns="http://www.w3.org/2000/svg" viewBox="0 0 588.84 93"><defs><style>.cls-1{fill:#fff;}</style></defs><title>grouper-plus-logo</title><path class="cls-1" d="M42.34,91a24.29,24.29,0,0,1-9.52,2,33.81,33.81,0,0,1-13.63-2.63A29.18,29.18,0,0,1,9,83.11,32.11,32.11,0,0,1,2.61,72.26,39.82,39.82,0,0,1,.39,58.81,41.2,41.2,0,0,1,2.61,45.09,33,33,0,0,1,9,34.05a29.13,29.13,0,0,1,10.21-7.39A33.31,33.31,0,0,1,32.82,24a32,32,0,0,1,9.84,1.53A27.92,27.92,0,0,1,51.25,30a24.23,24.23,0,0,1,9.38,17.28H46.77a13.9,13.9,0,0,0-5-8.32,14.51,14.51,0,0,0-9-2.77,17,17,0,0,0-8.32,1.89A15.71,15.71,0,0,0,19,43.15a22.26,22.26,0,0,0-3.09,7.25,36.09,36.09,0,0,0-1,8.41,33.54,33.54,0,0,0,1,8.08A21.83,21.83,0,0,0,19,74a15.85,15.85,0,0,0,5.54,5,16.92,16.92,0,0,0,8.32,1.89Q40,80.89,44,77.25t4.57-10.58H33.93V55.86H61.65V91.52H52.41L50.93,84A21.72,21.72,0,0,1,42.34,91Z" transform="translate(-0.39)"/><path class="cls-1" d="M109,25.55a21.27,21.27,0,0,1,8,1.43,18.42,18.42,0,0,1,6.1,3.93,17.07,17.07,0,0,1,3.88,5.77,18.53,18.53,0,0,1,1.34,7.07,19.84,19.84,0,0,1-2.45,10.07,15.36,15.36,0,0,1-8,6.47v.19a11.2,11.2,0,0,1,4.43,2.26,12.58,12.58,0,0,1,2.87,3.6,16.8,16.8,0,0,1,1.62,4.57,40,40,0,0,1,.69,5q.09,1.57.18,3.7t.32,4.34a29,29,0,0,0,.74,4.2,9.65,9.65,0,0,0,1.53,3.37H115.7A25.5,25.5,0,0,1,114.22,84q-.28-4.34-.83-8.31-.74-5.17-3.14-7.58t-7.85-2.4H87.89V91.52H73.38v-66Zm-5.17,29.84q5,0,7.48-2.22T113.76,46q0-4.8-2.49-7t-7.48-2.17H87.89V55.39Z" transform="translate(-0.39)"/><path class="cls-1" d="M260.48,86.49Q253,93,239.78,93q-13.4,0-20.74-6.47t-7.35-20v-41H226.2v41a29.82,29.82,0,0,0,.46,5.27,10.24,10.24,0,0,0,6.05,7.81,16.68,16.68,0,0,0,7.07,1.25q7.76,0,10.72-3.46t3-10.86v-41H268v41Q268,80,260.48,86.49Z" transform="translate(-0.39)"/><path class="cls-1" d="M310.19,25.55a27.46,27.46,0,0,1,10.53,1.8,19.69,19.69,0,0,1,7.07,4.76,18.3,18.3,0,0,1,4,6.74,25.21,25.21,0,0,1,0,15.66,18.24,18.24,0,0,1-4,6.79,19.73,19.73,0,0,1-7.07,4.76,27.46,27.46,0,0,1-10.53,1.8H294.94V91.52H280.44v-66Zm-4,31a30.09,30.09,0,0,0,4.8-.37,11.09,11.09,0,0,0,4.06-1.43,7.79,7.79,0,0,0,2.82-3A10.57,10.57,0,0,0,319,46.71a10.56,10.56,0,0,0-1.06-5.08,7.79,7.79,0,0,0-2.82-3A11.2,11.2,0,0,0,311,37.19a30.42,30.42,0,0,0-4.8-.37H294.94V56.6Z" transform="translate(-0.39)"/><path class="cls-1" d="M391.4,25.55v12.2H356.57V51.88h32V63.16h-32V79.33h35.57V91.52H342.07v-66Z" transform="translate(-0.39)"/><path class="cls-1" d="M437.51,25.55a21.27,21.27,0,0,1,8,1.43,18.42,18.42,0,0,1,6.1,3.93,17.07,17.07,0,0,1,3.88,5.77,18.53,18.53,0,0,1,1.34,7.07,19.84,19.84,0,0,1-2.45,10.07,15.36,15.36,0,0,1-8,6.47v.19a11.2,11.2,0,0,1,4.43,2.26,12.58,12.58,0,0,1,2.87,3.6,16.8,16.8,0,0,1,1.62,4.57,40,40,0,0,1,.69,5q.09,1.57.18,3.7t.32,4.34a29,29,0,0,0,.74,4.2,9.65,9.65,0,0,0,1.53,3.37H444.26A25.5,25.5,0,0,1,442.78,84q-.28-4.34-.83-8.31-.74-5.17-3.14-7.58t-7.85-2.4H416.44V91.52H401.94v-66Zm-5.17,29.84q5,0,7.48-2.22T442.31,46q0-4.8-2.49-7t-7.48-2.17H416.44V55.39Z" transform="translate(-0.39)"/><path class="cls-1" d="M477.71,14.24h2.71l-1.57,7.12H479a13.68,13.68,0,0,1,2.24-3.1,14.63,14.63,0,0,1,3.21-2.53A18.23,18.23,0,0,1,488.36,14a16.23,16.23,0,0,1,10.58.53,11.74,11.74,0,0,1,4.24,3.2,12.61,12.61,0,0,1,2.42,4.81,22.9,22.9,0,0,1,.75,6,28.27,28.27,0,0,1-1.25,8.19,24.45,24.45,0,0,1-3.67,7.44,19.9,19.9,0,0,1-5.95,5.41,15.48,15.48,0,0,1-8.08,2.1,11.92,11.92,0,0,1-8-2.81,14.29,14.29,0,0,1-4.49-7.51h-.14l-5,22.58H467Zm9.83,35.11a12.42,12.42,0,0,0,7-2,17.84,17.84,0,0,0,5-5.06,23,23,0,0,0,3-6.76,27.16,27.16,0,0,0,1-7.05,17.28,17.28,0,0,0-.71-5.09,11.85,11.85,0,0,0-2.1-4,9.55,9.55,0,0,0-3.49-2.67,11.81,11.81,0,0,0-4.95-1,12.16,12.16,0,0,0-7.05,2.1,18.26,18.26,0,0,0-5.09,5.27,26.6,26.6,0,0,0-4.09,13.71,13.24,13.24,0,0,0,.78,4.38,13.54,13.54,0,0,0,2.24,4.06,11.63,11.63,0,0,0,3.56,3A9.93,9.93,0,0,0,487.54,49.35Z" transform="translate(-0.39)"/><path class="cls-1" d="M520.51,0h2.71L512.61,50.85H509.9Z" transform="translate(-0.39)"/><path class="cls-1" d="M549.21,50.85H546.5l1.71-7.69-.14-.14a26.24,26.24,0,0,1-2.56,3.67,14.64,14.64,0,0,1-3.06,2.74,13,13,0,0,1-3.81,1.71,18.71,18.71,0,0,1-4.88.57,11.64,11.64,0,0,1-4-.68,9.56,9.56,0,0,1-3.31-2,9.82,9.82,0,0,1-2.28-3.2,10.17,10.17,0,0,1-.85-4.24,16,16,0,0,1,.11-1.64q.11-1,.28-2.07t.36-2q.18-1,.32-1.6l4.49-20h2.71l-4.49,19.94c-.1.33-.2.81-.32,1.42s-.24,1.28-.36,2-.21,1.41-.29,2.1-.11,1.29-.11,1.81a7.53,7.53,0,0,0,2.24,5.66,8.79,8.79,0,0,0,6.37,2.17,11.14,11.14,0,0,0,5.95-1.64,17.6,17.6,0,0,0,4.7-4.24,24.81,24.81,0,0,0,3.35-5.77,34.85,34.85,0,0,0,2-6.23l3.63-17.24H557Z" transform="translate(-0.39)"/><path class="cls-1" d="M561.81,38.38c0,.29,0,.57,0,.86s0,.57,0,.86q0,5.12,3.31,7.19t9.08,2.07a11.46,11.46,0,0,0,3.21-.5,11.59,11.59,0,0,0,3.2-1.5A8.66,8.66,0,0,0,583,44.9a6,6,0,0,0,1-3.38,5.87,5.87,0,0,0-1.6-4.17,12.88,12.88,0,0,0-3.77-2.56A36.82,36.82,0,0,0,573.71,33a26.2,26.2,0,0,1-4.84-2,12.33,12.33,0,0,1-3.7-3,6.91,6.91,0,0,1-1.42-4.77,8.44,8.44,0,0,1,1.14-4.45,9.58,9.58,0,0,1,3-3.1A13.52,13.52,0,0,1,572,14a19.58,19.58,0,0,1,4.66-.57,18.85,18.85,0,0,1,4.84.6,13.37,13.37,0,0,1,4,1.74,8.52,8.52,0,0,1,2.71,2.89,7.83,7.83,0,0,1,1,4c0,.42,0,.83,0,1.21s-.06.88-.11,1.5h-2.71c0-.43.08-.83.11-1.21s0-.76,0-1.14a6.14,6.14,0,0,0-.78-3.13,6.66,6.66,0,0,0-2.14-2.24,10.44,10.44,0,0,0-3.13-1.35,15,15,0,0,0-3.77-.46,17.41,17.41,0,0,0-3.42.36A11.28,11.28,0,0,0,570,17.31a7.63,7.63,0,0,0-2.53,2.24,5.76,5.76,0,0,0-1,3.45,5.07,5.07,0,0,0,.89,3,8.47,8.47,0,0,0,2.31,2.17,16.39,16.39,0,0,0,3.24,1.6c1.21.45,2.43.89,3.67,1.32s2.53.9,3.74,1.43a15,15,0,0,1,3.24,1.89,8.61,8.61,0,0,1,2.28,2.63,7.42,7.42,0,0,1,.85,3.67,9.49,9.49,0,0,1-1.17,4.77,10.8,10.8,0,0,1-3.1,3.45A13.66,13.66,0,0,1,578,51a18.47,18.47,0,0,1-5,.68,25.22,25.22,0,0,1-5.48-.57,12.81,12.81,0,0,1-4.45-1.85,9.17,9.17,0,0,1-3-3.38,11,11,0,0,1-1.1-5.16V39a3.46,3.46,0,0,1,.07-.64Z" transform="translate(-0.39)"/><path class="cls-1" d="M136,71.38a11.26,11.26,0,0,0,4.32,15.43,11.6,11.6,0,0,0,5.49,1.4,10.9,10.9,0,0,0,5.37-1.4,2.55,2.55,0,0,1,.58.47,1.67,1.67,0,0,0,.47.35c.23.23.58.35.82.58s.23.12.35.23c.47.23.82.47,1.28.7A29.83,29.83,0,0,0,169.39,93,30.93,30.93,0,0,0,181,90.66a2.59,2.59,0,1,0-2-4.79,24.92,24.92,0,0,1-21.73-1.28c-.58-.35-1.17-.7-1.64-1.05-.12-.12-.23-.12-.35-.23l-.12-.12a5.1,5.1,0,0,0,.47-.81,11,11,0,0,0,1.05-8.53,11.13,11.13,0,0,0-5.37-6.78,2.59,2.59,0,0,0-2.45,4.56,6.41,6.41,0,0,1,2.92,3.62,5.7,5.7,0,0,1-.58,4.56,6.11,6.11,0,0,1-8.29,2.34A6.41,6.41,0,0,1,140,78.52a5.71,5.71,0,0,1,.58-4.56,2.55,2.55,0,0,0-1.05-3.51A2.43,2.43,0,0,0,136,71.38ZM166.25,30a6.27,6.27,0,0,1,4.56-.7,6,6,0,0,1,3.74,2.81,2.64,2.64,0,1,0,4.56-2.68,11.23,11.23,0,0,0-7-5.14,11.48,11.48,0,0,0-8.53,1.28A11.61,11.61,0,0,0,158.07,35a37.62,37.62,0,0,0-3.74,1.87A30.07,30.07,0,0,0,140,59a2.61,2.61,0,0,0,2.22,2.92h.35a2.55,2.55,0,0,0,2.57-2.34A24.62,24.62,0,0,1,157,41.35a20.32,20.32,0,0,1,2.22-1.17,2.78,2.78,0,0,0,.47.81,11.23,11.23,0,0,0,7,5.14,11,11,0,0,0,8.53-1.28,2.64,2.64,0,1,0-2.68-4.56A6.26,6.26,0,0,1,168,41a6,6,0,0,1-3.74-2.81A5.9,5.9,0,0,1,166.25,30Zm28.39,34.12V63a25.11,25.11,0,0,0-9.46-19.63,2.58,2.58,0,0,1,3.15-4.09A30.09,30.09,0,0,1,199.78,63v1.87a2.33,2.33,0,0,1-.12.94v.47c0,.23-.12.58-.12.82A11.34,11.34,0,0,1,193.48,88a2.57,2.57,0,0,1,0-5.14,6.07,6.07,0,1,0-6.07-6.07,2.57,2.57,0,1,1-5.14,0A11.34,11.34,0,0,1,193.6,65.43h.94v-.12a2,2,0,0,1,.12-.82A1.94,1.94,0,0,1,194.64,64.14Z" transform="translate(-0.39)"/></svg>